<?xml version="1.0" encoding="UTF-8"?> <svg xmlns="http://www.w3.org/2000/svg" width="785" height="804" viewBox="0 0 785 804" fill="none"><g clip-path="url(#clip0_1026_254)"><path d="M782.7 354.4C783.4 367 784.5 379.6 784.6 392.2C784.6 403.6 783.7 414.9 782.7 426.3C781.9 435.3 780.2 444.2 779.1 453.1C777.3 468 774.7 482.7 769.5 496.9C761.9 517.6 754.6 538.4 746.9 559.1C742.6 570.8 737.9 582.4 733 593.9C730.5 599.7 727.1 605.1 724 610.6C717.2 622.7 710.1 634.7 703.4 646.9C695.9 660.4 686.8 672.6 675.8 683.5C670.7 688.6 665.9 694.2 660.4 698.8C645.6 711 632.6 725.1 616.2 735.6C602.1 744.6 587.8 752.9 572.8 760C554.8 768.5 536.6 776.6 518.4 784.6C511.3 787.7 503.9 790.4 496.5 792.6C483.3 796.6 470.1 800.2 456.1 800.7C444 801.1 431.9 802.3 419.9 802.8C407.6 803.3 395.3 804.1 383 803.7C368.6 803.3 354.2 802 340 798.9C326.2 795.9 312.3 793.6 298.6 790.5C288.4 788.2 278.4 785.2 268.3 782.5C253.9 778.7 240 773.5 226.8 766.7C207.9 756.9 188.5 747.8 171.3 735C161 727.4 151.4 718.7 142 710C132.2 700.9 123 691.2 113.8 681.5C109.5 677 105.8 671.8 101.8 666.9C97.0004 661.1 92.1004 655.3 87.5004 649.4C84.9004 646 82.8004 642.3 80.2004 638.8C72.5004 628.1 64.5004 617.6 57.0004 606.7C53.9004 602.3 51.8004 597.2 49.3004 592.4C45.7004 585.4 42.1004 578.4 38.7004 571.2C36.3004 566.1 34.2004 560.7 31.9004 555.5C30.7004 552.7 29.0004 550.1 27.9004 547.3C24.3004 538.1 20.7004 528.9 17.4004 519.6C15.3004 513.7 13.3004 507.7 11.9004 501.6C9.30038 490 6.20038 478.5 4.80038 466.7C4.20038 462.1 3.30038 457.5 2.90038 452.8C2.50038 448.5 2.40038 444.2 2.10038 439.9C1.40038 428.2 0.500376 416.6 0.200376 404.9C0.000376359 395.3 0.300376 385.7 0.900376 376.1C1.20038 370.8 2.60038 365.5 3.70038 360.3C5.20038 353.2 6.70038 346.1 8.50038 339.1C13.3004 321.5 16.3004 303.6 22.8004 286.4C26.6004 276.5 29.8004 266.3 34.4004 256.7C35.2004 255.1 35.7004 253.3 36.1004 251.6C38.0004 244.2 42.1004 237.9 46.2004 231.6C48.0004 228.9 48.9004 225.7 50.6004 222.9C53.0004 218.9 55.9004 215.2 58.4004 211.2C65.5004 200.1 72.3004 188.8 79.5004 177.7C84.6004 169.9 91.0004 163.4 98.1004 157.3C107.6 149.2 116 140 123.5 129.9C126.3 126.2 130 123.2 133.2 119.8C136.6 116.1 140.1 112.6 142.7 108.1C147.4 100.1 154.4 93.8002 161.7 88.0002C166.4 84.3002 171.3 80.7002 175.7 76.6002C184.3 68.5002 193.7 61.6002 203.5 55.0002C207.8 52.1002 212.2 49.2002 216.8 46.6002C227.3 40.5002 237.8 34.2002 248.6 28.8002C260.9 22.7002 273.5 17.3002 286.8 13.9002C295.8 11.6002 304.9 9.7002 314 7.7002C321.7 6.0002 329.4 3.7002 337.2 2.8002C349.2 1.4002 361.2 -0.599804 373.2 0.400196C384.6 1.3002 395.9 0.500196 407.3 1.4002C415.9 2.1002 424.4 3.2002 433 4.2002C438.9 4.9002 444.8 5.7002 450.7 6.6002C459.8 8.0002 469.1 8.5002 477.8 11.3002C485.8 13.9002 494.1 13.6002 502 16.4002C507.2 18.2002 512.9 18.6002 518.3 20.1002C523.9 21.7002 529.4 23.8002 534.8 26.1002C541.9 29.1002 548.9 32.3002 556.1 35.2002C563.7 38.3002 571.3 41.6002 577.9 46.8002C579.7 48.2002 582.2 48.7002 584.1 50.0002C590.6 54.2002 597 58.5002 603.3 63.0002C612.5 69.6002 621.7 76.1002 630.6 83.1002C634.8 86.4002 639.2 89.4002 643.5 92.5002C647.7 95.6002 651.7 98.8002 655.7 102.1C659.2 105.1 662.7 108.2 666 111.6C670.7 116.5 675.2 121.5 679.5 126.6C684.2 132.2 688.6 138.2 693.2 143.9C694.7 145.7 696.4 147.3 697.9 149.1C703.3 155.4 708.1 162.3 714 168C719.6 173.5 724.1 179.8 728.4 186.2C735.7 197.1 742 208.7 747.9 220.4C750.4 225.4 752 231 755.5 235.7C757.8 238.7 758.8 242.8 760 246.5C763.4 257.5 766.3 268.7 770.1 279.6C775 293.8 778 308.5 780.3 323.3C782 333.6 782.6 344 783.7 354.4C783.2 354.4 782.9 354.4 782.7 354.4ZM703.1 464.6C709.4 458.2 714.6 452.5 720.3 447.1C730.2 437.7 740.3 428.7 750.2 419.3C758.9 411.1 767.4 402.7 776 394.2C773.4 389.6 778 384.4 773.3 379.1C772.1 380.8 771.1 382.4 769.9 383.7C765.1 388.8 760.1 393.9 755.2 398.9C750.9 403.3 746.2 407.4 742.4 412.1C735.3 420.8 728 429.3 719.1 436.3C715.5 439.1 712.3 442.3 709.1 445.5C701.2 453.3 693.4 461 685.6 468.9C678.5 476.1 671.3 483.3 664.6 490.9C659.3 496.9 654 502.8 647.9 508C644.5 510.9 641.2 514.2 638.6 517.9C633.2 525.6 627 532.3 619.7 538C617.7 539.6 615.7 541.4 614.7 543.7C622.4 546.7 627.7 543.9 632.6 538.3C638.8 531.2 645.6 524.6 652.2 517.9C655.9 514.1 659.7 510.6 663.3 506.8C672.9 496.6 682.4 486.4 691.8 476.1C693.6 474.2 695.3 473.1 697.9 473.6C708.5 475.6 719.4 475.5 729.8 479.4C733.5 480.8 735.6 482.7 736.8 486.1C737.6 488.5 738.6 490.9 738.9 493.4C740.7 509.3 739.5 525.2 737.9 541.1C737.5 545 736.7 548.9 736 553.1C732.4 552.8 729.1 552.5 725.9 552.3C724.5 552.2 723 551.8 721.6 552.1C717.4 553 713.2 552.9 708.9 553C684.2 553.3 659.6 553 635.1 549.9C623.8 548.5 612.4 548 601 547.6C590.3 547.2 579.7 547.4 569 547.4C559.8 547.4 550.5 548.1 541 546C541.4 544.7 541.6 543.5 542.2 542.4C546.6 534.6 551.5 527.1 555.5 519.1C559.1 511.9 562 504.4 566.3 497.5C569.3 492.7 571.1 487.1 573.6 481.9C574.6 479.8 575.8 477.7 577 475.7C579.1 472.4 581.5 469.2 583.4 465.8C584.6 463.7 586 463.7 587.9 464.2C590.2 464.9 590.7 466.5 590 468.4C589.3 470.4 588.2 472.3 587 474.2C585.4 476.8 583.2 479.1 581.8 481.8C575.7 493.9 569.8 506 563.7 518.1C559.4 526.6 555 535.1 550.4 544C569.2 544 587.7 544 605.3 544C608.8 540.4 611.6 537.1 614.8 534.4C621.3 529 627.6 523.7 632.6 516.7C636 511.9 640.5 507.8 645 504C650.4 499.4 655.5 494.7 659.8 489C661.7 486.4 663.7 483.9 666 481.7C673.9 474 682 466.5 690 458.9C692.2 456.8 694.8 455 696.8 452.7C703.7 445.1 710.6 437.4 718.9 431.2C720.5 430 722.2 428.9 723.5 427.5C729.3 421.1 734.9 414.5 740.7 408C743.1 405.3 745.6 402.7 748.2 400.2C753.4 395.2 758.7 390.4 763.9 385.4C766.5 382.9 769 380.3 771.4 377.6C773.7 375.1 776.2 372.7 774 368.7C773.4 367.5 773.4 365.9 773.5 364.5C773.9 361.3 774.7 358.3 773.6 355C772.8 352.7 773.5 349.9 773.3 347.4C773.1 344.8 772.7 342.2 772.5 339.6C772 333.5 771.7 327.4 771 321.3C770.7 318.7 769.7 316.1 769.1 313.5C768.1 308.6 767.5 303.6 766.2 298.8C762.6 285.6 758.8 272.5 754.9 259.4C753.6 255 751.6 250.7 749.7 245.6C748.8 247.2 748.3 248.1 747.8 249C741.5 261.6 735.2 274.3 728.9 286.9C727.2 290.2 726.4 290.4 723 288.9C720.3 287.8 717.7 286.4 715 285.7C710.1 284.3 705.7 281.9 701.3 279.4C696.4 276.6 691 274.5 686 272.2C674.9 291.9 670.8 297.9 666.9 299.4C665.4 296 667.2 293.4 669.1 291.1C677.5 281.2 682.5 269.3 688.7 258.1C693 250.4 696.4 242.1 700.8 234.5C708.2 221.6 716.1 209.1 721.6 195.3C722.2 193.9 722.9 192.6 721.9 191.3C719 187.4 716.1 183.7 712.7 179.3C709.4 185.8 706.7 191.7 703.6 197.4C699.3 205.4 695.5 213.9 690 221.1C679.4 235.1 671.7 250.5 666.6 267.1C663.9 275.9 659 283.4 654 290.9C652.7 292.9 651.3 293.7 649.2 291.9C648.5 288.9 649.8 286.8 651.7 284.6C654.3 281.6 656.8 278.5 658.5 275C661.2 269.5 663.2 263.6 665.3 257.9C669.3 246.9 674.4 236.6 681.2 227C685.8 220.5 690.2 213.9 694.2 207C699.3 198.2 703.8 189.1 708.5 180.2C709.2 179 709.7 177.6 710.1 176.8C698.5 162.9 687.4 149.4 676 135.9C664.1 121.8 651.2 108.7 636 97.8002C620.6 86.7002 606 74.6002 590 64.3002C582.4 59.4002 574.8 54.7002 567.6 50.2002C562.9 53.8002 563.8 60.0002 559.5 63.2002C553.7 60.5002 548.1 58.0002 542.4 55.4002C545.2 50.8002 547.6 46.7002 550.3 42.3002C545.8 40.3002 541.8 38.6002 537.9 36.9002C527 31.9002 515.7 28.2002 504 25.9002C492.3 23.6002 480.5 21.4002 468.8 19.3002C456.9 17.2002 445 15.1002 433 13.3002C428.6 12.6002 424.1 12.7002 420.2 12.5002C416.3 23.3002 412.7 33.5002 409 43.7002C403.2 59.2002 396.3 74.1002 386.9 87.8002C382.7 93.9002 377.7 99.4002 371.6 103.8C357.2 114.4 341.6 123.5 328.8 136.1C321.2 143.5 313.6 150.9 306.8 159.1C299 168.5 292.2 178.7 284.9 188.6C279.7 195.6 273.3 201.4 266.1 206.3C259.8 210.6 253.6 214.9 247.1 218.9C239.3 223.7 231.5 228.4 223.4 232.6C216.7 236.1 209.7 238.8 202.8 241.9C190.6 247.5 177.9 251.4 164.8 254.1C155.6 256 146.2 257.2 137.2 259.5C129 261.6 121 264.9 116.2 272.6C114.3 275.6 112.9 278.9 111.3 282.1C108.5 287.8 106.2 293.7 102.9 299.1C99.3004 305.1 94.5004 310.2 91.5004 316.7C88.2004 323.9 82.6004 330 81.1004 338.2C81.0004 338.7 80.4004 339.1 80.3004 339.6C78.0004 345.6 75.5004 351.6 73.4004 357.6C69.7004 368.3 65.9004 378.9 62.8004 389.8C59.4004 401.6 51.6004 411 46.8004 422.1C43.4004 429.9 38.3004 437.1 33.5004 444.2C28.2004 452.1 25.4004 460.6 26.5004 470C27.1004 475.5 24.4004 479.7 21.8004 484C20.5004 486.2 18.8004 488.1 17.5004 490.3C16.9004 491.3 16.5004 492.7 16.8004 493.7C19.6004 503.6 22.1004 513.6 25.6004 523.3C29.4004 533.8 34.1004 544 38.6004 554.3C42.4004 562.9 46.1004 571.6 50.4004 579.9C55.5004 589.7 60.6004 599.5 66.6004 608.7C72.2004 617.4 78.8004 625.3 85.1004 633.5C85.9004 634.5 87.3004 635.7 88.5004 635.7C93.4004 635.9 98.4004 635.7 104 635.6C106.2 639.4 108.8 643.9 111.8 649C107.2 649.9 103.3 650.6 98.9004 651.4C101.4 654.8 103.5 658.1 106.1 661C114.9 671 123.6 681 132.8 690.6C140.5 698.7 148.8 706.2 157.1 713.8C161.4 717.7 165.9 721.4 170.6 724.8C176.2 728.7 182.1 732.2 187.9 735.8C192.3 738.5 196.7 741.4 201.2 743.8C207.1 746.9 213.4 749.3 219 752.7C227.3 757.8 236.1 761.6 245.5 765.2C247.1 762.4 248.7 759.8 250.2 757.2C255.2 748.5 260.1 739.6 265.2 731C270.4 722.2 276 713.5 281.3 704.8C282.4 703 283.3 701 284.4 699.1C289.3 690.6 296.7 683.7 300.1 674.2C300.4 673.5 301.3 672.9 302 672.5C308.6 668.3 315.1 664.2 321.8 660.1C324.2 658.7 326.8 658.4 329.6 658.9C334 659.7 338.5 660.1 343 660.6C352 661.8 361 662.8 369.9 664.2C377.8 665.5 385.1 668.8 392.2 672.4C398.7 675.7 405.7 676.2 412.7 676.4C418.8 676.6 424.9 676.7 430.9 677.8C434.6 678.5 438.1 678 440.3 674.2C442 671.2 444.4 668.7 446.1 665.7C454.7 651.5 462.1 636.6 469.2 621.6C475.9 607.6 482.7 593.5 492.9 581.6C498.6 574.9 502.6 567.3 505.9 559.2C507.9 554.2 510.2 549.1 513.3 544.7C522.4 531.7 528.9 517.3 535.9 503.2C538.4 498.2 541.5 493.5 544.5 488.8C550.7 479.2 557 469.8 563.4 460.3C563.9 459.5 564.8 458.9 565.6 458.2C567.5 460.9 565.8 462.7 564.7 464.4C559 473 553.5 481.8 547.5 490.1C542.8 496.6 539.1 503.7 535.9 510.9C530.7 522.3 525.4 533.6 518.2 544C514.1 550 511.1 556.5 508.3 563.3C505.9 569.3 502.3 574.9 498.8 580.3C495.6 585.3 491.2 589.6 488.3 594.8C481.9 606.4 476.2 618.2 470.3 630C468.2 634.2 466.6 638.7 464.5 642.8C460 651.5 455.4 660.1 450.6 668.7C448.4 672.6 446 676.3 443.3 679.8C440.4 683.7 435.8 685.6 431.4 684.9C423.7 683.5 416 683.6 408.3 683.6C399 683.7 390.9 679.7 382.6 676.5C381.3 676 380.2 675 378.9 674.6C371.4 672.8 363.9 671.1 356.4 669.4C355.9 669.3 355.3 669.5 354.8 669.5C347.2 668.7 339.5 668.1 331.9 667.1C328.8 666.7 325.8 666.5 323 668.3C320.3 670 317.8 672.3 314.8 673.2C309.2 674.9 306.1 678.8 303.6 683.6C302.9 684.9 302.1 686 301.4 687.2C298.6 691.4 295.7 695.5 293 699.8C287.6 708.6 282.3 717.4 276.9 726.2C275.9 727.8 273.9 729 273.3 730.6C271.6 735.4 267.6 738.6 265.7 743.4C263.5 749.1 259.6 754 256.6 759.4C255.3 761.7 254.3 764.2 252.6 767.8C261.1 769.4 267.7 774.5 275.9 773.7C279.7 766.8 283.4 760.2 287 753.5C290.5 747 293.8 740.4 297.3 733.8C300.6 727.6 303.9 721.3 307.6 715.4C312.2 708.2 317 701.3 322.2 694.5C324.8 691 328.4 687.7 332.7 687.2C339.6 686.5 346.7 685.7 353.7 688.2C368.5 693.6 383.5 698.1 399.5 698.7C403.2 698.8 406.8 700.5 410.5 701.3C415.4 702.3 420.4 703.3 425.4 703.7C429 704 429.8 704.6 429.3 708.2C428.8 711.2 428.4 714.2 428.3 717.3C428.1 721.6 428.3 725.9 428.3 730.4C425.6 730.2 423.5 729.9 421.4 730C413.6 730.3 405.9 730.9 398.1 730.9C393.8 730.9 389.5 730.3 385.2 729.8C374.5 728.6 363.9 728.4 353.2 729.8C350.3 730.2 349.1 731.7 348.6 734.2C347.1 742.2 345.6 750.2 343.9 758.2C342.1 766.3 344 775 339.9 782.8C339.1 784.4 339.4 786.5 339.2 788.3C342.2 789 344.6 789.6 347.2 790.2C347.6 788.9 348.1 787.8 348.3 786.6C350.8 774.2 353.3 761.9 355.7 749.5C356.8 744 359.5 741 364.9 740.7C368 740.5 371 739.9 374.1 739.9C386.9 739.8 399.7 740 412.5 739.9C418 739.8 423 741.7 428 743C425.8 759.9 425.7 776.4 425.2 793.4C429.9 792.8 433.7 792.3 438 791.8C437.6 788.3 436.9 785 437 781.7C437.1 774.1 437.6 766.6 437.7 759C437.8 747.2 437.5 735.5 437.7 723.7C437.8 717.2 438.5 710.8 439 704.5C445.6 702.9 450.1 699.4 454.6 695.7C462.5 689.1 467.6 680.2 473 671.8C479.8 661 486.5 650.2 493.5 639.6C498.1 632.6 503.1 625.8 507.3 618.5C509.9 614.1 511.4 609 513.3 604.2C514.6 601.1 515.8 597.9 517.2 594.8C518.9 591 520.7 587.3 522.5 583.6C525.7 577 528.8 570.3 532.2 563.7C534 560.3 537.2 559.4 540.7 560.9C541.8 561.4 542.9 562.2 544 562.2C551.1 562 558.1 561.5 565.1 561.2C571.2 561 577.5 559.8 583.3 561C589.9 562.4 596.6 562.4 603.1 563.8C613 565.9 623.4 564.3 633.1 567.8C634.2 568.2 635.6 567.9 636.9 567.9C647.6 567.6 648.8 568.6 648.6 579.6C648.4 588.3 647.5 597 647.2 605.6C646.8 617.5 647.1 629.5 646.3 641.4C645.6 653 643.9 664.5 642.7 676C641.7 685.3 640.7 694.7 639.7 704C639.7 704.2 640.1 704.4 640.5 704.8C641 704.4 641.6 704 642.1 703.5C646.7 699.5 651.7 695.8 655.9 691.5C658.4 688.9 661.4 686.6 661.6 682.1C662.2 671.8 663.6 661.6 664.7 651.3C665.1 647.6 665.4 643.9 665.8 640C666.1 639.8 666.7 639.3 667.4 639.2C677.9 638.5 688.3 637.8 698.8 637.1C701 632.6 705.3 629.2 705.5 623.7C692.7 624.4 680.2 625.4 667.3 624C667.2 622.2 667 620.6 667 619C667.2 611.9 667.5 604.9 667.6 597.8C667.7 591.9 667.4 585.9 667.6 580C667.8 574 668.6 573.6 675 573.9C679 574.1 683 574.2 687 573.9C693.7 573.5 700.3 572.7 707 572.2C715.5 571.6 724 571.3 732.7 570.8C733.7 569.4 735.2 568 735.5 566.4C737.2 558.5 742.7 552 742.9 543.6C742.9 543 743.5 542.3 743.8 541.7C746.5 536.3 748.2 530.7 748.4 524.7C748.6 518.7 748.7 512.7 749 506.8C749.3 499.1 750.4 491.3 750 483.6C749.7 477 747.4 470.7 739.9 468.6C736.8 467.7 733.5 467.4 730.5 466.2C723.7 463.3 716.7 463.7 709.6 464.1C707.6 464.6 705.9 464.6 703.1 464.6ZM13.2004 481.7C18.5004 476.9 18.7004 472 18.5004 467.1C18.2004 459.2 19.3004 451.7 23.7004 444.8C27.8004 438.4 31.4004 431.8 35.1004 425.2C39.3004 417.7 43.4004 410.1 47.3004 402.5C49.8004 397.5 52.4004 392.5 54.3004 387.3C57.1004 379.5 59.1004 371.4 61.9004 363.6C65.3004 353.7 69.2004 344 72.7004 334.1C76.3004 323.9 81.4004 314.7 87.6004 305.9C91.6004 300.2 95.4004 294.2 98.8004 288.1C101.8 282.7 103.9 276.9 106.8 271.5C108.8 267.7 110.9 263.7 114 261C117.8 257.7 122.7 255.7 127.2 253.6C132.3 251.2 138.1 250.7 143.5 248.9C148.4 247.3 153.8 247.4 159.1 247.1C166.5 246.6 173.3 243.7 180.3 241.9C190.3 239.3 200 235.5 209.5 231.5C212.9 230.1 216.4 228.6 219.7 226.9C224.2 224.6 228.5 222.2 232.9 219.7C237.5 217.1 241.9 214.5 246.5 211.9C262.5 203 276.7 192.2 287.4 177C293.8 167.8 300.8 158.9 308.1 150.4C323.4 132.7 342.1 118.8 361.8 106.4C373.2 99.2002 382.4 89.8002 389.1 78.2002C399 61.3002 406.6 43.2002 413.2 24.8002C414.6 20.8002 415.4 16.6002 416.5 12.3002C415 12.1002 414.3 12.0002 413.6 11.9002C397.1 11.3002 380.7 10.9002 364.3 10.1002C359.5 9.9002 356.3 11.0002 354.7 15.8002C354.2 17.3002 352.8 18.4002 351.9 19.8002C348.6 25.2002 344.9 30.4002 343 36.6002C341.3 42.2002 341.2 48.3002 337.5 53.2002C336.8 54.1002 336.9 55.6002 336.5 56.8002C336 58.5002 335.5 60.2002 334.8 61.9002C331.4 69.7002 328 77.5002 324.5 85.2002C321.9 91.0002 319.6 96.9002 316.3 102.3C309 114.1 299.1 123.8 288.1 132.1C278.7 139.1 271.6 147.8 265.9 157.7C257.5 172.2 246 183.4 231.4 191.3C220.3 197.4 209.1 203.1 197.8 208.9C193.3 211.2 188.6 213.1 183.5 213.6C172.6 214.7 162.4 218.4 152.2 221.8C135.7 227.4 121.7 237.7 107.9 247.8C81.6004 267 64.7004 293.2 55.0004 324.1C51.4004 335.7 46.5004 346.3 36.3004 354C28.6004 359.8 23.3004 367.6 20.1004 376.7C18.2004 382.2 14.7004 386.7 10.3004 390.1C7.10038 392.6 6.30038 395.2 6.50038 398.9C7.10038 411.7 7.30038 424.6 9.00038 437.4C10.7004 451.7 11.7004 466.2 13.2004 481.7ZM629.7 714.2C623.8 714.2 618.1 714.2 612.4 714.2C606.9 714.2 605.6 712.5 605.5 707C605.3 695.6 604.9 684.2 604.6 672.8C604.5 667.9 604.6 663.1 604.6 658C609.5 656 614.1 654.3 619.3 654.2C626.1 654.1 633 653.5 639.9 653.1C642.2 638.1 642.9 623.5 642.6 608.9C642.5 604.9 642.9 600.9 643.4 597C644.5 588.8 644.9 580.7 643.3 573.2C636.7 572.1 630.7 570.9 624.7 570C622.2 569.6 619.7 569.5 617.1 569.3C614 569 611 568.8 607.9 568.3C599.3 566.9 590.5 567.4 582.1 564.8C581.8 564.7 581.4 564.7 581 564.7C568.5 565.1 556 565.5 543.5 565.7C539.7 565.8 537.7 567.5 536.2 570.9C532.8 578.3 529.1 585.5 525.5 592.8C524.8 594.2 524.1 595.6 523.3 597.1C524.1 597.7 524.4 598.3 524.9 598.4C536.3 601.2 547.7 603.8 559.1 606.6C560.7 607 562.2 607.6 563.8 607.9C567.2 608.7 568.5 610.8 568.6 614.1C568.9 619.1 568.1 623.8 565.7 628.3C563.5 632.4 561.6 636.7 559.7 641C557.2 646.6 555.1 652.4 552.3 657.8C549.2 663.9 545 669.5 542.3 675.8C539.3 682.6 535.9 689.1 532.1 695.5C529.9 699.1 529 699.6 525.1 698.6C523.2 698.1 521.4 697 519.6 696.3C516.2 695 512.8 693.8 509.4 692.7C505.6 691.5 501.7 690.6 498 689.3C492.6 687.4 487.3 685 481.8 683.1C479 682.1 476 681.8 473.4 681.2C461.9 697.7 456.7 701.6 441.2 710.7C439.9 726.4 440.1 785.5 441.6 791.8C449.5 791.7 457.4 791.3 465.4 790.3C475.4 789 485 786.8 494.4 783.5C498.2 782.1 502.5 781.9 506.3 780.5C511.8 778.4 517 775.7 522.3 773.3C524.4 772.3 526.5 771.2 528.7 770.4C533 768.7 537.4 767.4 541.6 765.5C550 761.7 558.3 757.5 566.7 753.6C569.4 752.3 572.4 751.6 575.1 750.2C583.5 745.7 591.7 741 600 736.4C602.3 735.1 604.6 733.9 606.8 732.4C610.5 729.8 614 727.1 617.6 724.4C621.8 721 627.1 719.4 629.7 714.2ZM347.5 11.5002C341.2 12.2002 335.2 12.7002 329.3 13.6002C323.1 14.6002 317 16.4002 310.7 17.4002C307.7 17.9002 305.8 19.2002 304.1 21.6002C299.5 28.0002 296.5 35.1002 293.7 42.4002C289.4 53.6002 284.2 64.3002 276.6 73.7002C264.8 88.1002 253.1 102.6 241.5 117.2C236.5 123.4 232 129.9 229.3 137.6C226 147.1 220.9 155.7 213.7 162.8C204.5 171.9 195 180.3 183 185.7C176.1 188.8 169.6 192.7 162.8 196.1C156.9 199.1 151 202.4 144.9 205C134.7 209.2 124.4 213.1 114 216.5C108.2 218.4 104.5 222.1 101 226.6C98.0004 230.4 95.0004 234.3 91.4004 237.6C85.1004 243.5 79.2004 250.1 71.3004 254.1C70.5004 254.5 69.8004 255.2 69.2004 255.9C64.3004 262.2 59.4004 268.4 54.6004 274.7C53.3004 276.4 52.6004 278.6 51.3004 280.3C44.8004 288.1 37.7004 295.4 29.4004 301.3C27.3004 302.8 26.0004 304.4 25.4004 306.7C23.1004 315.3 20.6004 323.8 18.5004 332.4C17.0004 338.5 16.4004 345 14.5004 350.9C11.3004 361 9.00038 371.4 7.90038 382C7.70038 383.5 7.90038 385.1 7.90038 387.2C12.4004 383.9 15.0004 380.2 16.7004 375.7C20.1004 366.6 25.0004 358.5 32.5004 352.1C34.3004 350.6 36.1004 349.1 37.8004 347.5C44.1004 341.7 47.2004 334.1 49.9004 326.2C52.7004 318 55.0004 309.7 58.9004 301.8C62.8004 294 67.0004 286.5 71.7004 279.3C74.6004 274.9 77.0004 270.1 80.5004 266.4C87.5004 258.9 94.7004 251.6 102.5 245.1C109.7 239.1 117.8 234.3 125.5 228.9C133.3 223.4 141.6 218.8 150.6 215.4C157.1 212.9 163.8 210.8 170.4 208.6C173.1 207.7 175.9 206.6 178.7 206.3C186.6 205.6 193.2 201.6 200 198.1C206.1 194.9 212.2 191.7 218.3 188.4C224.1 185.2 230.4 182.6 235.4 178.5C242.3 172.9 248.8 166.5 254.4 159.7C259.1 154 262.3 147 266.2 140.6C266.9 139.5 267.4 138.3 268.3 137.5C271.1 134.6 274 131.6 277.1 129C279.9 126.6 283.8 125.3 286.1 122.5C293.2 114.3 302.3 107.8 307.6 98.0002C310.4 92.7002 313.9 87.7002 316.6 82.3002C318.8 77.8002 320.5 73.0002 322.8 68.5002C328.9 56.6002 332.2 43.6002 336.3 30.8002C336.7 29.6002 337.1 28.4002 337.8 27.4002C340.7 22.3002 343.9 17.3002 347.5 11.5002ZM31.2004 287.6C31.5004 287.8 31.9004 288 32.2004 288.2C35.1004 285.2 38.2004 282.4 40.8004 279.2C43.7004 275.6 46.1004 271.6 48.9004 267.8C51.8004 263.8 54.6004 259.8 57.7004 256.1C60.8004 252.5 63.8004 248.4 67.8004 246C74.0004 242.2 79.5004 237.7 84.3004 232.4C87.9004 228.5 91.8004 224.9 95.0004 220.5C98.1004 216.4 101.3 211.5 107.2 210.5C108.2 210.3 109.1 209.4 110.1 209.1C120.7 205.5 131.2 202 141.8 198.5C143.5 197.9 145.3 197.5 146.9 196.7C152.2 194 157.3 191.1 162.6 188.5C176.5 181.7 191 176.2 202.9 165.6C211.2 158.2 218.8 150.5 223 140C224.5 136.3 225.7 132.5 227.9 129.2C233.7 120.5 239.6 111.8 246.1 103.6C255.4 92.0002 265.6 81.2002 274.8 69.5002C279.8 63.2002 284 56.0002 287.5 48.7002C291.8 39.8002 294.1 30.0002 299.7 21.7002C299.8 21.5002 299.6 21.1002 299.5 20.5002C298.4 20.6002 297.4 20.7002 296.3 20.9002C291.9 22.1002 287.7 23.7002 283.3 24.6002C281.1 25.1002 280 26.0002 278.8 27.8002C275.2 33.2002 271.5 38.6002 267.3 43.6002C261 51.1002 254.6 58.5002 245.6 63.1002C242.4 64.7002 239.4 66.8002 236.5 69.0002C232.5 72.0002 228 73.8002 223.3 75.1002C219.5 76.2002 215.8 77.7002 212.1 79.1002C208.7 80.4002 205.4 81.7002 202 83.0002C196.5 85.0002 191.3 87.3002 186.7 91.1002C174 101.5 163 113.5 152.2 125.7C146.9 131.6 141.7 137.9 138 144.8C133.9 152.5 129.5 159.8 123.9 166.4C118 173.4 112.6 180.7 104.7 186C94.9004 192.4 86.3004 200.7 74.6004 203.9C73.2004 204.3 71.7004 205.5 70.8004 206.8C67.3004 211.6 63.8004 216.4 60.9004 221.6C55.9004 230.4 51.1004 239.3 46.7004 248.4C42.6004 256.8 39.0004 265.5 35.5004 274.2C33.7004 278.6 32.6004 283.1 31.2004 287.6ZM334.8 788.8C336.4 781.1 337.9 774.3 339.2 767.4C339.8 764.4 339.7 761.3 340.1 758.3C340.9 753.1 341.9 748 342.9 742.8C343.9 737.9 344.9 733 346 728.1C349.2 727.5 352 726.8 354.9 726.4C358.8 726 362.8 725.4 366.8 725.7C375.3 726.2 383.7 727.4 392.1 727.9C400.9 728.4 409.7 728.3 418.4 728.4C420.5 728.4 422.6 728.4 424.5 728.4C424.5 721.6 424.5 715.4 424.5 709.3C420.1 708.7 416.1 709 412.7 707.6C403.2 703.4 392.9 703.8 383.2 701.5C375.7 699.7 368 698.1 360.7 695.5C353.5 693 346.5 690.9 338.7 691.2C331.9 691.5 327 694.2 323 699.3C321.3 701.4 319.7 703.6 318.3 705.9C312.5 715.3 306.6 724.6 301 734.1C297.1 740.8 293.6 747.7 290 754.4C291.2 755.5 292 756.2 292.8 756.9C290.5 758.7 287.8 759.9 286.4 761.9C283.4 766.3 281 771.2 278.2 776.3C297.1 780.4 315.6 784.5 334.8 788.8ZM528.3 694.4C531 689.6 533.5 685.3 535.9 680.8C540.1 673 544.3 665.2 548.3 657.4C550.7 652.8 553 648.1 555.2 643.3C557.5 638.2 559.2 632.8 561.9 627.9C564.9 622.4 565.6 617.1 563.6 611.2C554.1 608.6 544.6 605.9 535 603.5C530.8 602.4 526.6 601.8 522.2 601C520.4 605.4 519 609.9 516.9 614.1C510.3 627.4 501.5 639.4 493.1 651.6C487.6 659.5 482.5 667.7 477.3 675.6C493.3 684.6 510.8 688.1 528.3 694.4ZM733.9 547.6C734.2 544 734.4 541 734.7 537.9C736.2 524.5 736.8 511.1 736.2 497.7C736 494 734.6 490.3 733.4 486.7C733.1 485.6 732.1 484.3 731 483.9C727.8 482.3 724.5 480.5 721 479.9C713.6 478.5 706 477.7 698.5 476.6C696.7 476.3 695.6 477.1 694.4 478.5C690.4 483.2 686.2 487.7 682 492.2C678.9 495.4 675.3 498.3 672.2 501.5C663.4 510.3 654.7 519.2 646.1 528.2C640.8 533.7 635.6 539.4 629.6 545.9C640.7 546.7 650.7 547.4 660.8 548.1C661.9 539.8 663 532.2 663.9 524.5C664.4 519.8 664.7 519.2 669.5 519.3C678.5 519.5 687.7 518.6 696.5 521.5C697.4 521.8 698.3 521.9 699.2 522C705.2 522.9 711.2 523.8 717.3 524.7C718.5 532.7 717 540 717 547.8C722.9 547.6 728.4 547.6 733.9 547.6ZM350.5 790.4C353.7 791 356.7 791.2 359.5 792.2C365 794.2 370.8 793.4 376.5 794C382 794.6 387.6 793 393 794.9C393.8 795.2 394.8 794.8 395.7 794.7C400.6 794.4 405.6 793.9 410.5 793.7C413.9 793.5 417.2 793.6 420.6 793.5C421.6 777.2 422.6 761.6 423.6 745.8C418.5 745 413.9 743.7 409.3 743.7C395.2 743.7 381.1 744.1 367 744.5C360.9 744.7 359.4 746.3 358.1 752.6C356.7 759.5 355.3 766.4 353.9 773.3C352.9 778.8 351.8 784.3 350.5 790.4ZM725.5 196.4C721.1 205.1 717.3 212.9 713.3 220.6C709.2 228.4 704.7 236.1 700.5 243.9C696.4 251.7 692.5 259.6 688.3 267.8C701 273.8 711.7 282.8 725.7 284.6C728.1 279.8 730.5 275.4 732.7 270.8C737.2 261.7 741.6 252.6 746.2 243.6C747.3 241.4 747.3 239.6 746.2 237.4C744.6 234.2 743.3 230.8 741.7 227.6C736.6 217.6 731.3 207.6 725.5 196.4ZM274.2 29.5002C274 29.1002 273.8 28.7002 273.6 28.3002C272.1 28.8002 270.6 29.1002 269.1 29.8002C264.8 31.7002 260.5 33.5002 256.3 35.6002C247.9 39.8002 239.6 44.0002 231.4 48.5002C224.3 52.4002 217.3 56.6002 210.5 61.0002C204.4 64.9002 198.4 69.0002 192.7 73.4002C186.5 78.1002 180.6 83.1002 174.6 88.1002C172.7 89.7002 170.9 91.5002 169.1 93.3002C165.2 97.3002 161.3 101.4 157.4 105.4C153.9 109 150.2 112.4 147 116.1C140.7 123.3 134.7 130.8 128.3 137.9C120.7 146.4 112.5 154.3 105.2 163C97.9004 171.7 91.3004 181 84.4004 190C84.0004 190.5 83.8004 191 83.0004 192.1C84.3004 191.7 84.9004 191.7 85.3004 191.5C89.4004 188.6 93.3004 185.5 97.5004 182.7C103.6 178.7 109.9 175.2 114.6 169.2C121.2 160.8 128.6 153 133.3 143.2C134.3 141.1 135.7 139.2 137.1 137.3C143.8 127.9 151.1 119 159.7 111.2C166.5 105 172.7 98.1002 179.4 91.9002C185.5 86.2002 192.5 81.7002 200.6 79.3002C204.5 78.1002 208.4 76.6002 212.3 75.2002C214.5 74.4002 216.5 73.2002 218.8 72.7002C224.6 71.3002 230.3 69.7002 235 65.8002C236.9 64.2002 239 62.7002 241.3 61.7002C255.9 54.6002 264.8 41.8002 274.2 29.5002ZM730.6 575.8C710.4 577 691.1 578.1 671 579.2C671 593.4 671 607.4 671 621.4C671.9 621.6 672.6 622 673.2 622C683.9 621.5 694.5 621 705.2 620.6C708.2 620.5 709.5 618.6 710.7 616.2C713.8 610.5 717 605 720.4 599.4C724.7 592.4 728.1 584.9 730.6 575.8ZM632.7 708.6C635 690.9 637.3 673.9 639.6 656C629.1 658.5 618.3 655.3 608.3 660.8C608.2 662 608 663.4 608.1 664.8C608.3 671.3 608.5 677.8 608.7 684.4C608.9 691.5 609 698.5 609.2 705.6C609.3 708.9 610.1 709.7 613.5 709.8C618.2 709.9 623 710 627.7 709.8C629.4 709.8 631.3 709 632.7 708.6ZM768.6 463.5C765.8 466.1 763.9 464.6 761.9 462.4C756.9 456.9 751.8 451.5 746.6 446.3C743.6 443.3 740.1 440.7 736.8 437.8C728 445.1 719.7 451.9 712.6 461.1C715.8 461.3 718.3 461.2 720.8 461.5C723.3 461.8 725.8 462.3 728.2 462.9C730.6 463.4 733 464.3 735.5 464.7C747 466.6 751.6 471.9 753 483.4C754 491.4 752.8 499.3 752.2 507.2C752 510.4 752.2 513.6 752.2 516.9C753 516.8 753.9 516.6 753.9 516.6C753.8 512.9 756.4 510.1 757.5 506.9C758.1 505.2 757.9 503.4 758.9 501.5C761.7 496.4 762.2 490.5 764.2 485C766.7 478.3 767.2 470.9 768.6 463.5ZM664.8 548.2C680.3 548.2 695.1 548.2 709.9 548.2C712.3 548.2 713.2 546.9 713.3 544.9C713.5 540.9 713.7 537 713.9 533C714.1 528.4 714.1 528 709.7 527.1C700.3 525.2 690.9 523.6 681.5 522.3C677.1 521.7 672.5 522.2 668 522.2C667 531.2 664.1 539.2 664.8 548.2ZM765.9 460.7C767.5 458.5 769.5 456.9 770.1 454.9C771 452.1 770.9 449 771 446C771.3 440.2 772.9 434.6 772.8 428.8C772.8 423.7 774.6 418.5 775.2 413.3C775.6 409.5 775.3 405.6 775.3 401.3C763.2 412.9 751.4 424.2 739.6 435.5C748.3 443.7 756.8 451.9 765.9 460.7ZM696.6 640.8C686.8 641.4 678 642 669.3 642.5C666.6 655.7 665.5 668.6 664.9 681.7C678.1 670.4 688.5 657.2 696.6 640.8Z" fill="white"></path><path d="M243.7 462.8C239.6 462.8 235.7 462.8 231 462.8C231.8 454.8 232.7 447 233.5 438.7C230.7 438.5 228.1 438.4 224.8 438.2C224.8 426.9 224.8 415.7 224.8 404.5C224.8 393.4 224.8 382.4 224.8 371.3C224.5 371.2 224.2 371 223.9 370.9C222.9 372.5 221.8 374 220.9 375.6C211.6 391.2 202.2 406.7 193.1 422.4C191.1 425.9 188.9 427.2 184.6 427.5C177.8 428 174.3 425.5 171.1 419.6C163 404.6 154.1 390 145.6 375.2C144.7 373.7 143.7 372.3 141.9 371C141.9 393.2 141.9 415.4 141.9 437.9C131.6 437.9 121.9 437.9 112.2 437.9C111.2 434.2 110.8 330.9 111.8 322.6C112.4 322.4 113.1 322.1 113.8 322C123.8 321.9 133.8 322 143.8 321.9C146.9 321.9 147.7 323.9 148.9 326C157.4 341.4 165.9 356.8 174.5 372.2C177.5 377.6 180.5 382.9 183.8 389C185.4 386.4 186.6 384.5 187.8 382.5C198.8 363.9 209.8 345.3 220.6 326.6C222.6 323.2 224.8 321.7 228.7 321.9C235.4 322.2 242.1 322 248.9 322C250.7 322 252.4 322 254.9 322C254.9 326.9 255 331.2 255 335.5C255 337.1 255.2 338.8 255 340.4C254.5 344.2 255.7 347.1 258.9 349.2C259.6 349.7 260.1 350.5 261.1 351.6C259.3 356 257.2 360.3 255.9 364.9C255.1 367.8 255.2 371 255.2 374.1C255.2 393.5 255.3 413 255.3 432.4C255.3 434.2 255.3 436 255.3 438.1C251.8 438.1 248.8 438.1 245.2 438.1C244.8 446.3 244.3 454.2 243.7 462.8Z" fill="white"></path><path d="M434.401 396.5C443.201 401.3 451.601 405.9 460.301 410.6C457.301 418.1 452.401 423.8 446.301 428.4C437.401 435.1 427.201 438.5 416.101 439.6C402.201 441 388.901 439.2 376.401 433C355.201 422.4 344.301 405 343.601 381.2C342.801 350.5 364.301 326.7 394.701 321.6C407.801 319.4 420.701 320 433.301 324.8C446.201 329.7 455.401 338.4 460.101 350.2C451.701 354.7 443.301 359.2 434.501 364C433.501 362.7 432.501 361.5 431.601 360.2C423.901 349.8 412.901 346.2 399.701 349.1C388.401 351.7 380.301 361.1 378.301 373.3C377.301 379.1 377.501 384.9 379.001 390.6C382.201 402.4 390.101 409.8 402.101 411.8C413.801 413.8 424.101 410.7 431.401 400.6C432.301 399.5 433.101 398.3 434.401 396.5Z" fill="white"></path><path d="M704.1 382.3C704 402.7 696.1 419.3 679.5 431.3C671.9 436.8 663.1 439.5 653.7 440.6C644.7 441.6 636 441 627.4 438.4C606.2 432.1 589.9 411.7 588.1 389.7C586.7 372.1 590.3 356.2 602.1 342.5C611.8 331.2 624 325.1 638.8 323.6C649.3 322.6 659.6 323.2 669.2 327.5C691.4 337.3 702.5 355 704.2 379C704.2 380.1 704.1 381.2 704.1 382.3ZM646.1 346.5C630.2 345.6 618.6 357.3 615.2 369.8C613.3 376.8 613.1 383.8 614.3 390.8C616.8 405.8 628.9 417.2 642.9 417.7C660.4 418.4 672.9 409.7 677 393.6C679.1 385.3 678.9 377.1 676.5 368.9C673.1 357.4 661.7 345.7 646.1 346.5Z" fill="white"></path><path d="M542.9 438.1C531.4 438.1 520.7 438.1 509.6 438.1C509.6 408.9 509.6 379.9 509.6 350.8C505 349.3 500.6 350.2 496.4 350C492.2 349.9 488 350 483.9 350C479.6 350 475.2 350 470.5 350C470.5 340.8 470.5 332 470.5 323.1C474.2 321.8 571 321.3 581.2 322.5C582.5 326.2 582.7 342.9 581.5 350C575.3 350 569.1 350 562.8 350C556.5 350 550.1 350 543 350C543 365 543 379.6 542.9 394.2C542.9 408.7 542.9 423.2 542.9 438.1Z" fill="white"></path><path d="M291.9 326C299.4 326 306.7 326 313.9 326C314.8 326 315.7 326.2 316.8 326.3C316.8 363.6 316.8 400.7 316.8 438.1C308.4 438.1 300.2 438.1 292.1 438.1C291.2 434.2 290.9 334.8 291.9 326Z" fill="white"></path><path d="M304.001 307.5C294.501 307.4 288.001 300.8 288.201 291.2C288.301 281.9 295.401 274.7 304.501 275.2C315.701 275.8 320.401 283.5 320.401 291.7C320.401 301.1 313.601 307.6 304.001 307.5Z" fill="white"></path><path d="M141.9 621.2C144.6 620.5 146.4 620 148.8 619.4C150.6 615.5 153.5 612 159.6 613C160.1 607 166 608.1 169.6 605.2C172.7 610.7 175.6 616 178.9 621.9C168.6 626.6 160.7 634.4 149.8 638.2C147.1 632.6 144.7 627.2 141.9 621.2Z" fill="white"></path><path d="M118.401 648.8C115.301 643.6 112.401 638.6 109.301 633.2C110.901 632.5 112.101 631.8 113.401 631.6C118.301 630.7 122.701 628.1 127.801 627.8C130.601 627.7 133.201 625.2 136.501 623.6C139.001 629.1 141.601 634.5 144.501 640.7C136.201 644.7 127.801 647.4 118.401 648.8Z" fill="white"></path><path d="M211.6 564.9C215.4 566.9 219.7 569.1 223.9 571.3C222.9 577.4 220.5 581.4 207.7 598.4C203.6 593 199.6 587.7 195.5 582.4C201.8 577.2 203.5 568.6 211.6 564.9Z" fill="white"></path><path d="M193.201 589.2C196.701 593.8 200.301 598.5 204.101 603.5C197.201 608.6 190.701 613.4 183.801 618.5C180.501 612.6 177.401 607.2 174.101 601.2C182.301 599.7 185.801 592 193.201 589.2Z" fill="white"></path><path d="M529.5 86.1001C536 87.6001 541.9 89.0001 548.1 90.4001C545 98.4001 543.2 106 539.7 113.2C534 111.7 528.9 110.2 522.9 108.6C525.1 101 527.2 93.8001 529.5 86.1001Z" fill="white"></path><path d="M516.801 138.8C522.601 140.3 527.601 141.6 533.201 143.1C531.601 152.1 529.701 160.7 526.001 169.6C521.201 167.5 516.901 165.5 512.101 163.4C514.301 155.3 517.701 147.9 516.801 138.8Z" fill="white"></path><path d="M537.2 60.9004C544.2 61.7004 549.6 65.3004 555.7 68.2004C553.8 73.8004 551.9 79.1004 550 84.6004C544.2 83.5004 538.6 82.5004 533 81.3004C531.1 80.9004 530.9 79.5004 531.7 78.0004C532.3 76.9004 534 75.8004 533.8 75.1004C532.5 69.8004 537.2 66.3004 537.2 60.9004Z" fill="white"></path><path d="M539 119.1C538.3 124.4 537.7 128.9 537.2 133.5C536.8 136.7 535.6 137.7 532.6 136.9C528.8 135.9 524.9 134.8 520.6 133.5C520.2 127.3 521.7 121.2 522.2 114.5C528.2 116.2 533.6 117.7 539 119.1Z" fill="white"></path><path d="M234.501 541.4C229.101 540.1 224.601 539 219.801 537.8C221.401 530.9 223.001 524.3 224.601 517.6C229.301 517.9 233.501 518.1 237.801 518.3C236.701 526.1 235.701 533.3 234.501 541.4Z" fill="white"></path><path d="M212.801 558.8C214.401 553.1 215.801 548.2 217.201 542.9C222.101 544.2 226.401 545.3 231.401 546.6C230.001 553.1 228.601 559.3 227.101 566.1C221.901 563.5 217.501 561.2 212.801 558.8Z" fill="white"></path><path d="M521.901 174.5C520.901 181.8 517.201 187 513.101 192.7C509.601 190 506.401 187.4 502.801 184.7C505.201 179.3 507.401 174.2 509.801 168.8C514.401 170.8 518.401 172.8 521.901 174.5Z" fill="white"></path><path d="M485.5 207.3C487.7 210.6 489.9 214 492.4 217.9C487.7 223.5 480.3 224.5 474.5 229.2C472.7 225 471.2 221.6 469.5 217.8C474.8 214.3 480 210.9 485.5 207.3Z" fill="white"></path><path d="M499.901 189.8C503.301 192.5 506.501 195.1 510.301 198.1C507.101 204.3 502.201 209 497.201 214.4C494.401 210.2 492.101 206.6 489.801 203C493.201 198.6 496.301 194.5 499.901 189.8Z" fill="white"></path><path d="M238.801 493.5C238.601 500.2 240.801 506.3 237.001 512.2C233.801 512.2 230.001 512.2 225.601 512.2C224.901 505.7 226.001 499.6 227.401 492.9C231.101 493.1 234.901 493.3 238.801 493.5Z" fill="white"></path><path d="M239.401 488.2C235.301 487.8 231.601 487.5 227.301 487.1C228.001 481 228.801 474.9 229.501 468.9C233.801 468.9 237.701 468.9 242.201 468.9C241.201 475.5 240.301 481.7 239.401 488.2Z" fill="white"></path><path d="M373.401 256.1C372.501 252.4 371.901 249.4 371.101 246.1C373.501 245.3 375.601 244.4 377.801 244C382.101 243.2 385.601 240.7 389.601 239.2C392.401 238.1 393.101 238.5 393.801 241.3C394.301 243.4 394.501 245.6 395.001 248.4C387.901 250.9 380.901 253.4 373.401 256.1Z" fill="white"></path><path d="M419.1 229.8C419.7 233.5 420.3 236.8 421 240.6C414.3 242.3 408 245.2 400.4 245.4C399.8 242.3 399.3 239.4 398.7 235.8C405.4 233.9 411.8 232 419.1 229.8Z" fill="white"></path><path d="M443.901 224.3C445.001 228.4 445.801 231.7 446.801 235.7C440.001 236.8 433.501 237.8 426.601 238.9C426.001 235.3 425.401 232 424.801 228.4C431.101 227 437.201 225.7 443.901 224.3Z" fill="white"></path><path d="M449.7 223.2C453.5 222 457.1 220.8 460.7 219.7C462.8 219.1 464.2 219.9 465 221.9C466 224.4 467 226.9 468.4 230.1C463.4 231.7 458.5 233.3 453.6 234.9C451 231.3 450.7 227.3 449.7 223.2Z" fill="white"></path><path d="M365.501 248.6C366.301 252 366.901 254.9 367.601 258C361.401 260.6 355.501 263.1 349.001 265.9C348.201 262.9 347.501 260.4 346.801 257.6C352.401 253.2 358.901 251.4 365.501 248.6Z" fill="white"></path><path d="M275.301 325.9C273.101 324.2 271.301 322.8 269.301 321.2C272.801 313.9 278.601 309.3 284.801 304.8C288.501 304.9 288.101 308.2 289.301 310.8C284.701 315.7 280.201 320.6 275.301 325.9Z" fill="white"></path><path d="M343.601 268.3C339.601 270.9 336.201 273.2 332.701 275.5C329.201 277.7 325.701 277.6 324.401 275.3C323.101 273 325.301 269.4 328.601 267.6C330.501 266.6 332.301 265.4 333.901 264C336.001 262.2 338.101 260.7 341.301 260.5C342.101 263.2 342.801 265.8 343.601 268.3Z" fill="white"></path><path d="M256.9 339.6C259.8 334.9 262.4 330.5 265.3 325.8C267.9 327.8 269.8 329.3 271.9 331C269.3 336.1 268.5 341.8 263.4 345.2C261.5 343.5 259.6 341.9 256.9 339.6Z" fill="white"></path><path d="M459.101 719C460.201 718.7 461.1 718.8 461.5 718.4C466.2 713 472.201 716.1 477.701 715.7C479.601 715.6 481.6 715.7 483.5 715.7C488.7 715.8 494.001 715.8 499.201 716.1C507.801 716.5 516.4 717 525 717.5C527.1 717.6 529.201 717.9 531.401 718C534.801 718.2 535.901 719.4 535.401 722.8C534.201 731.5 533.1 740.3 531.8 749C531 754.3 529.901 759.6 528.901 764.8C528.401 767.2 527.001 768.7 524.401 768.6C522.001 768.6 519.6 768.8 517.3 768.4C511 767.1 504.7 767.9 498.4 768.6C487.2 769.8 476.1 768.7 464.9 767.3C460.7 766.8 459.1 764.8 459 760.2C458.9 750.2 459 740.3 459 730.3C459.1 726.8 459.101 723.2 459.101 719ZM531.3 723.7C529.4 723.1 528 722.3 526.5 722.1C507 719.8 487.3 719.7 468.3 719.7C466.2 721.6 464.401 723.1 462.701 724.6C462.401 731 461.9 737.5 461.9 744C461.9 749.2 462.5 754.5 462.9 759.7C463.1 762.5 464.9 763.9 467.5 764.2C471.8 764.7 476.1 765.4 480.4 765.4C494.3 765.3 508.101 765 522 764.7C522.7 764.7 523.4 764.5 523.8 764.4C529.8 751.4 528.2 737.3 531.3 723.7Z" fill="white"></path><path d="M628.5 632.1C616.7 632.1 605.8 632.1 595 632.1C592.2 632.1 591.3 630.3 591.3 627.8C591.4 621.8 591.4 615.8 591.5 609.9C591.5 607.4 591.5 604.9 591.5 601.6C586.8 601.6 582.3 601.6 577.9 601.6C572.1 601.6 571.9 601.3 571.6 595.6C571.4 591.1 571 586.6 570.9 582.1C570.9 579.8 571.4 577.5 571.7 574.7C579.7 574.7 587.3 574.4 594.8 574.8C604.1 575.3 613.4 575.2 622.7 574.7C628.1 574.4 628.7 575.2 628.7 580.7C628.6 595.7 628.5 610.7 628.4 625.7C628.4 627.7 628.5 629.7 628.5 632.1ZM575.5 578.7C575.5 584.1 575.4 588.6 575.6 593C575.7 595 576.7 596.4 579.1 596.3C582.9 596.1 586.7 596.2 590.5 595.8C594 595.5 594.6 595.8 594.7 599.4C594.7 606.5 594.6 613.5 594.6 620.6C594.6 622.9 594.6 625.2 594.6 628.2C604.8 628.5 614.5 628.8 624.7 629.1C625.1 612.3 625.8 596.3 624.8 579.6C608.2 579.4 592.2 579.1 575.5 578.7Z" fill="white"></path><path d="M157.001 173.1C156.301 173.1 155.501 173.2 154.801 173.1C145.001 171.3 140.501 166.6 145.401 155.8C146.701 152.9 148.801 150.2 151.001 147.9C159.801 139 168.801 130.4 177.701 121.7C179.601 119.8 181.401 117.7 183.101 115.7C183.801 114.9 184.601 113.8 184.501 112.9C184.301 107.8 187.901 105.1 191.301 102.7C195.701 99.7001 200.901 98.5001 206.201 99.5001C211.601 100.6 216.401 110.8 215.201 116.8C213.701 124.2 209.101 129.4 204.701 134.9C194.601 147.8 182.101 158.3 169.001 168C165.601 170.6 161.901 173.5 157.001 173.1ZM206.401 106.9C199.001 105.3 193.201 107.5 188.701 113.9C186.401 117.1 183.601 120 180.801 122.8C171.901 131.8 162.801 140.7 154.001 149.8C151.601 152.2 149.601 155.1 148.101 158.2C145.601 163.5 147.701 167.4 153.401 168.8C157.301 169.7 161.001 169 164.201 166.7C169.201 163.1 174.201 159.5 178.801 155.5C188.301 147.2 197.201 138.2 204.701 127.9C205.901 126.3 206.901 124.6 208.001 122.9C211.601 117.5 210.301 112.4 206.401 106.9Z" fill="white"></path></g><defs><clipPath id="clip0_1026_254"><rect width="784.5" height="803.6" fill="white"></rect></clipPath></defs></svg> 